<svg xmlns="http://www.w3.org/2000/svg" viewBox="0 0 1600 900">
<defs>
 <radialGradient id="sky" cx=".5" cy=".4" r=".75"><stop stop-color="#6b4a9a"/><stop offset=".35" stop-color="#31234e"/><stop offset="1" stop-color="#080813"/></radialGradient>
 <radialGradient id="orb"><stop stop-color="#55446f"/><stop offset=".62" stop-color="#171421"/><stop offset="1" stop-color="#05050a"/></radialGradient>
 <linearGradient id="water" x1="0" y1="0" x2="0" y2="1"><stop stop-color="#3a2f56"/><stop offset=".55" stop-color="#161321"/><stop offset="1" stop-color="#08080d"/></linearGradient>
 <filter id="glow"><feGaussianBlur stdDeviation="18"/></filter>
</defs>
<rect width="1600" height="900" fill="url(#sky)"/>
<g fill="#fff" opacity=".55"><circle cx="170" cy="160" r="2"/><circle cx="344" cy="94" r="3"/><circle cx="530" cy="175" r="2"/><circle cx="1210" cy="125" r="2"/><circle cx="1420" cy="250" r="3"/><circle cx="1080" cy="88" r="2"/></g>
<path d="M0 615 210 475l160 82 180-150 176 145 166-91 160 111 185-154 363 207v325H0Z" fill="#0c0b19"/>
<ellipse cx="800" cy="410" rx="410" ry="130" fill="none" stroke="#efe8ff" stroke-width="12" opacity=".7" filter="url(#glow)"/>
<ellipse cx="800" cy="410" rx="410" ry="130" fill="none" stroke="#f4eeff" stroke-width="5"/>
<circle cx="800" cy="420" r="132" fill="url(#orb)" stroke="#8f80ad" stroke-width="3"/>
<rect y="625" width="1600" height="275" fill="url(#water)"/>
<ellipse cx="800" cy="686" rx="330" ry="44" fill="#b49ad8" opacity=".21" filter="url(#glow)"/>
<path d="M540 710h520M590 748h420M640 790h320M695 835h210" stroke="#c7b6df" stroke-opacity=".36" stroke-width="4"/>
</svg>