<svg xmlns="http://www.w3.org/2000/svg" viewBox="0 0 1600 900">
<defs><radialGradient id="bg"><stop stop-color="#24262b"/><stop offset=".38" stop-color="#0b0c0f"/><stop offset="1" stop-color="#020203"/></radialGradient><linearGradient id="cr" x1="0" y1="0" x2="1" y2="1"><stop stop-color="#fff"/><stop offset=".2" stop-color="#8c939c"/><stop offset=".48" stop-color="#15181d"/><stop offset=".72" stop-color="#d7dce2"/><stop offset="1" stop-color="#3b4149"/></linearGradient><filter id="glow"><feGaussianBlur stdDeviation="20"/></filter></defs>
<rect width="1600" height="900" fill="url(#bg)"/><g fill="none" stroke="#a3a7ad" stroke-opacity=".2"><circle cx="770" cy="430" r="350"/><circle cx="770" cy="430" r="278"/><circle cx="770" cy="430" r="215"/><path d="M330 430h880M770 40v780M430 145 1110 715M1110 145 430 715"/></g>
<ellipse cx="770" cy="725" rx="420" ry="88" fill="#d7dbe0" opacity=".12" filter="url(#glow)"/><ellipse cx="770" cy="715" rx="390" ry="74" fill="#15181d" stroke="#8e949c" stroke-width="5"/><ellipse cx="770" cy="697" rx="300" ry="48" fill="#2a2d32" stroke="#d7dce2" stroke-opacity=".46" stroke-width="3"/>
<polygon points="770,160 1010,390 770,625 525,390" fill="url(#cr)" stroke="#e5e8ec" stroke-opacity=".75" stroke-width="5"/><polygon points="770,160 770,625 525,390" fill="#6e747c" opacity=".38"/><polygon points="770,160 1010,390 770,390" fill="#eef1f4" opacity=".35"/><polygon points="525,390 770,390 770,625" fill="#111318" opacity=".72"/>
<g stroke="#cfd3d8" stroke-opacity=".35"><path d="M250 155h220M1070 150h290M1080 680h250M240 700h190"/></g><g fill="#cfd3d8" opacity=".45"><circle cx="250" cy="155" r="4"/><circle cx="1360" cy="150" r="4"/><circle cx="1330" cy="680" r="4"/></g>
</svg>