<svg xmlns="http://www.w3.org/2000/svg" viewBox="0 0 1600 900">
<defs><linearGradient id="bg" x1="0" y1="0" x2="1" y2="1"><stop stop-color="#0d4146"/><stop offset=".5" stop-color="#1a6870"/><stop offset="1" stop-color="#0a2429"/></linearGradient><linearGradient id="glass" x1="0" y1="0" x2="1" y2="1"><stop stop-color="#bdeff0" stop-opacity=".33"/><stop offset=".45" stop-color="#3aa7ad" stop-opacity=".08"/><stop offset="1" stop-color="#c6ffff" stop-opacity=".22"/></linearGradient><filter id="mist"><feGaussianBlur stdDeviation="24"/></filter><pattern id="rain" width="80" height="80" patternUnits="userSpaceOnUse"><circle cx="14" cy="12" r="3" fill="#d7ffff" opacity=".5"/><circle cx="54" cy="38" r="2" fill="#d7ffff" opacity=".35"/><path d="M20 20l-7 19M61 48l-6 17" stroke="#d7ffff" stroke-opacity=".22" stroke-width="2"/></pattern></defs>
<rect width="1600" height="900" fill="url(#bg)"/><ellipse cx="900" cy="420" rx="620" ry="260" fill="#9adfe1" opacity=".12" filter="url(#mist)"/>
<g stroke="#c8f8f7" stroke-opacity=".28" stroke-width="4"><rect x="110" y="95" width="330" height="690" fill="url(#glass)"/><rect x="470" y="40" width="320" height="760" fill="url(#glass)"/><rect x="820" y="110" width="300" height="690" fill="url(#glass)"/><rect x="1150" y="20" width="340" height="780" fill="url(#glass)"/></g>
<path d="M160 690c170-148 300-198 430-352M390 700c-55-159-42-302 68-435M1050 675c95-162 202-264 360-332" fill="none" stroke="#203f38" stroke-width="13" opacity=".55"/><g fill="#496d5e" opacity=".65"><ellipse cx="480" cy="334" rx="46" ry="20"/><ellipse cx="535" cy="300" rx="38" ry="16"/><ellipse cx="1250" cy="370" rx="44" ry="18"/></g>
<rect width="1600" height="900" fill="url(#rain)"/><rect y="730" width="1600" height="170" fill="#0a272c" opacity=".52"/><path d="M0 790h1600M0 830h1600" stroke="#9adfe1" stroke-opacity=".18" stroke-width="3"/>
</svg>