<svg xmlns="http://www.w3.org/2000/svg" viewBox="0 0 1600 900">
<defs>
 <linearGradient id="bg" x1="0" y1="0" x2="1" y2="1"><stop stop-color="#f2ede5"/><stop offset="1" stop-color="#cfc2b1"/></linearGradient>
 <linearGradient id="stone" x1="0" y1="0" x2="0" y2="1"><stop stop-color="#f4f0e9"/><stop offset="1" stop-color="#c9bdad"/></linearGradient>
 <radialGradient id="light"><stop stop-color="#fff" stop-opacity=".95"/><stop offset="1" stop-color="#fff" stop-opacity="0"/></radialGradient>
 <filter id="soft"><feGaussianBlur stdDeviation="18"/></filter>
</defs>
<rect width="1600" height="900" fill="url(#bg)"/>
<ellipse cx="940" cy="45" rx="620" ry="210" fill="#fff" opacity=".72"/>
<path d="M980 0C920 160 850 250 820 410v370H1600V0Z" fill="#e7dfd3"/>
<path d="M1120 0C1090 160 1070 340 1080 790h520V0Z" fill="#ded3c5" opacity=".8"/>
<rect x="880" y="190" width="98" height="505" rx="44" fill="url(#stone)"/>
<rect x="1320" y="270" width="86" height="410" rx="42" fill="#ddd2c5"/>
<path d="M141 620C270 478 356 375 418 148" fill="none" stroke="#5c5142" stroke-width="17" stroke-linecap="round"/>
<path d="M345 340c82-122 165-184 263-220M314 420c-60-92-111-126-177-144M374 270c-56-94-58-152-42-213" fill="none" stroke="#6d5b45" stroke-width="10" stroke-linecap="round"/>
<g fill="#718358">
 <ellipse cx="541" cy="144" rx="45" ry="18"/><ellipse cx="583" cy="119" rx="37" ry="15"/><ellipse cx="503" cy="183" rx="42" ry="16"/>
 <ellipse cx="205" cy="275" rx="39" ry="17"/><ellipse cx="155" cy="244" rx="31" ry="14"/><ellipse cx="340" cy="98" rx="36" ry="15"/>
</g>
<ellipse cx="845" cy="705" rx="355" ry="108" fill="#b9ad9f" opacity=".35" filter="url(#soft)"/>
<ellipse cx="845" cy="690" rx="300" ry="92" fill="url(#stone)"/>
<ellipse cx="845" cy="657" rx="300" ry="70" fill="#f6f1ea"/>
<circle cx="846" cy="595" r="48" fill="#c8beae"/>
<circle cx="1180" cy="230" r="275" fill="url(#light)" opacity=".65"/>
<rect y="760" width="1600" height="140" fill="#e0d6c9" opacity=".75"/>
</svg>